<?xml version="1.0" encoding="UTF-8"?>
<svg width="30px" height="21px" viewBox="0 0 30 21" version="1.1" xmlns="http://www.w3.org/2000/svg" xmlns:xlink="http://www.w3.org/1999/xlink">
    <!-- Generator: Sketch 43.1 (39012) - http://www.bohemiancoding.com/sketch -->
    <title>Shape</title>
    <desc>Created with Sketch.</desc>
    <defs></defs>
    <g id="Page-1" stroke="none" stroke-width="1" fill="none" fill-rule="evenodd">
        <g id="контакты" transform="translate(-945.000000, -475.000000)" fill-rule="nonzero" fill="#F5F5F5">
            <path d="M972.363281,475 L947.636719,475 C946.182832,475 945,476.182832 945,477.636719 L945,492.916914 C945,494.370801 946.182832,495.553633 947.636719,495.553633 L972.363281,495.553633 C973.817168,495.553633 975,494.370801 975,492.916914 L975,477.636719 C975,476.182832 973.817168,475 972.363281,475 Z M972.01916,476.757812 L971.667246,477.05084 L961.046133,485.895039 C960.439922,486.399766 959.559961,486.399766 958.953867,485.895039 L948.332754,477.05084 L947.98084,476.757812 L972.01916,476.757812 Z M946.757812,478.026836 L955.411641,485.232871 L946.757812,490.992227 L946.757812,478.026836 Z M972.363281,493.79582 L947.636719,493.79582 C947.212031,493.79582 946.856836,493.493008 946.775449,493.092051 L956.821055,486.406445 L957.829102,487.245859 C958.458047,487.76957 959.229082,488.031426 960.000059,488.031426 C960.771035,488.031426 961.542012,487.76957 962.171016,487.245859 L963.179062,486.406445 L973.224609,493.091992 C973.143164,493.493066 972.787969,493.79582 972.363281,493.79582 Z M973.242188,490.992227 L964.588359,485.23293 L973.242188,478.026836 L973.242188,490.992227 Z" id="Shape"></path>
        </g>
    </g>
</svg>