<?xml version="1.0" encoding="UTF-8"?>
<svg width="30px" height="30px" viewBox="0 0 30 30" version="1.1" xmlns="http://www.w3.org/2000/svg" xmlns:xlink="http://www.w3.org/1999/xlink">
    <!-- Generator: Sketch 43.1 (39012) - http://www.bohemiancoding.com/sketch -->
    <title>instagram</title>
    <desc>Created with Sketch.</desc>
    <defs></defs>
    <g id="Page-1" stroke="none" stroke-width="1" fill="none" fill-rule="evenodd">
        <g id="контакты" transform="translate(-687.000000, -470.000000)" fill-rule="nonzero" fill="#F5F5F5">
            <g id="instagram" transform="translate(687.000000, 470.000000)">
                <path d="M29.8800713,8.80116959 C29.8099415,7.21057199 29.5527229,6.11705041 29.1842562,5.1694993 C28.8041392,4.16369702 28.2193439,3.26320357 27.4531707,2.51461988 C26.704587,1.75438596 25.7981543,1.16365135 24.8040022,0.789473684 C23.8509685,0.421006959 22.7631579,0.163788363 21.1725603,0.0936585965 C19.5700841,0.0175895322 19.0613578,0 14.9970304,0 C10.9327029,0 10.4239766,0.0175895322 8.82743971,0.0877192982 C7.23684211,0.157849064 6.14332053,0.415296023 5.19599778,0.783534386 C4.18996713,1.16365135 3.28947368,1.74844667 2.54089,2.51461988 C1.78065608,3.26320357 1.19014982,4.16963632 0.815743801,5.16378836 C0.447277076,6.11705041 0.19005848,7.20463269 0.119928713,8.79523029 C0.0438596491,10.3977065 0.026270117,10.9064327 0.026270117,14.9707602 C0.026270117,19.0350877 0.0438596491,19.543814 0.113989415,21.1403509 C0.184119181,22.7309485 0.44156614,23.8244701 0.810032865,24.7720212 C1.19014982,25.7778235 1.78065608,26.6783169 2.54089,27.4269006 C3.28947368,28.1871345 4.19590643,28.7778691 5.19005848,29.1520468 C6.14332053,29.5205135 7.23090281,29.7777321 8.82172877,29.8478619 C10.4180373,29.91822 10.9269919,29.9355812 14.9913194,29.9355812 C19.0556469,29.9355812 19.5643732,29.91822 21.1609101,29.8478619 C22.7515077,29.7777321 23.8450292,29.5205135 24.792352,29.1520468 C26.8041849,28.3742233 28.3947825,26.7836257 29.172606,24.7720212 C29.5408443,23.8187591 29.7982913,22.7309485 29.8684211,21.1403509 C29.9385508,19.543814 29.9561404,19.0350877 29.9561404,14.9707602 C29.9561404,10.9064327 29.9502011,10.3977065 29.8800713,8.80116959 Z M27.1843019,21.0233918 C27.119883,22.4853801 26.8743147,23.2748538 26.6696363,23.8011696 C26.166621,25.1053088 25.1315789,26.1403509 23.8274397,26.6433662 C23.3011239,26.8480446 22.5059393,27.0936129 21.0496619,27.1578034 C19.4707146,27.2281615 18.9971674,27.2455227 15.0029696,27.2455227 C11.0087719,27.2455227 10.5292854,27.2281615 8.95604901,27.1578034 C7.4940607,27.0936129 6.70458702,26.8480446 6.17827123,26.6433662 C5.52928544,26.4035088 4.93855082,26.0233918 4.45906433,25.5263158 C3.9619883,25.04089 3.58187135,24.4560947 3.34201392,23.8071089 C3.13733556,23.2807931 2.89176719,22.4853801 2.82757673,21.0293311 C2.7572186,19.4503837 2.73985743,18.9766082 2.73985743,14.9824105 C2.73985743,10.9882127 2.7572186,10.5087263 2.82757673,8.93571819 C2.89176719,7.47372988 3.13733556,6.6842562 3.34201392,6.15794041 C3.58187135,5.50872626 3.9619883,4.91822 4.46500363,4.43850515 C4.95020105,3.94142912 5.53499637,3.56131216 6.18421053,3.3216831 C6.71052632,3.11700474 7.5059393,2.87143637 8.9619883,2.80701754 C10.5409357,2.73688778 11.0147112,2.71929825 15.0086806,2.71929825 C19.0088176,2.71929825 19.4823648,2.73688778 21.0556012,2.80701754 C22.5175895,2.87143637 23.3070632,3.11700474 23.833379,3.3216831 C24.4823648,3.56131216 25.0730994,3.94142912 25.5525859,4.43850515 C26.0496619,4.92393094 26.4297789,5.50872626 26.6696363,6.15794041 C26.8743147,6.6842562 27.119883,7.47944082 27.1843019,8.93571819 C27.2544316,10.5146656 27.2720212,10.9882127 27.2720212,14.9824105 C27.2720212,18.9766082 27.2544316,19.4444444 27.1843019,21.0233918 Z" id="Shape"></path>
                <path d="M14.9970304,7.28070175 C10.7515533,7.28070175 7.30697187,10.7250549 7.30697187,14.9707602 C7.30697187,19.2164656 10.7515533,22.6608187 14.9970304,22.6608187 C19.2427357,22.6608187 22.6870888,19.2164656 22.6870888,14.9707602 C22.6870888,10.7250549 19.2427357,7.28070175 14.9970304,7.28070175 Z M14.9970304,19.95911 C12.2427814,19.95911 10.0086806,17.7252375 10.0086806,14.9707602 C10.0086806,12.2162829 12.2427814,9.98241047 14.9970304,9.98241047 C17.7515077,9.98241047 19.9853801,12.2162829 19.9853801,14.9707602 C19.9853801,17.7252375 17.7515077,19.95911 14.9970304,19.95911 L14.9970304,19.95911 Z" id="Shape"></path>
                <path d="M24.7866411,6.97665386 C24.7866411,7.96806468 23.982776,8.77192982 22.9911367,8.77192982 C21.9997258,8.77192982 21.1958608,7.96806468 21.1958608,6.97665386 C21.1958608,5.98501462 21.9997258,5.18137789 22.9911367,5.18137789 C23.982776,5.18137789 24.7866411,5.98501462 24.7866411,6.97665386 L24.7866411,6.97665386 Z" id="Shape"></path>
            </g>
        </g>
    </g>
</svg>