<?xml version="1.0" encoding="UTF-8"?>
<svg width="513px" height="513px" viewBox="0 0 513 513" version="1.1" xmlns="http://www.w3.org/2000/svg" xmlns:xlink="http://www.w3.org/1999/xlink">
    <!-- Generator: Sketch 43.1 (39012) - http://www.bohemiancoding.com/sketch -->
    <title>Group</title>
    <desc>Created with Sketch.</desc>
    <defs></defs>
    <g id="Symbols" stroke="none" stroke-width="1" fill="none" fill-rule="evenodd">
        <g id="Group" fill-rule="nonzero" fill="#F5F5F5">
            <path d="M498.639,395.039 L394.993,325.919 C381.84,317.218 364.209,320.081 354.485,332.498 L324.294,371.316 C320.414,376.432 313.361,377.916 307.748,374.798 L302.005,371.632 C282.967,361.255 259.279,348.336 211.552,300.592 C163.825,252.848 150.88,229.142 140.503,210.139 L137.354,204.396 C134.193,198.784 135.649,191.701 140.767,187.79 L179.559,157.608 C191.971,147.883 194.838,130.257 186.147,117.1 L117.027,13.454 C108.12,0.056 90.25,-3.966 76.461,4.323 L33.12,30.358 C19.502,38.364 9.511,51.33 5.242,66.539 C-10.365,123.405 1.376,221.547 145.948,366.136 C260.952,481.131 346.567,512.056 405.413,512.056 C418.956,512.114 432.446,510.352 445.52,506.817 C460.732,502.553 473.7,492.561 481.701,478.939 L507.762,435.624 C516.063,421.832 512.043,403.951 498.639,395.039 Z M493.058,426.868 L467.057,470.209 C461.312,480.041 451.985,487.27 441.03,490.382 C388.533,504.795 296.817,492.857 158.022,354.062 C19.227,215.267 7.29,123.559 21.703,71.054 C24.819,60.086 32.057,50.747 41.901,44.993 L85.242,18.992 C91.225,15.392 98.981,17.137 102.846,22.951 L140.393,79.322 L171.907,126.588 C175.681,132.295 174.441,139.944 169.057,144.167 L130.256,174.349 C118.448,183.378 115.076,199.715 122.346,212.681 L125.427,218.279 C136.333,238.281 149.892,263.164 199.394,312.658 C248.896,362.151 273.771,375.711 293.764,386.616 L299.37,389.705 C312.335,396.974 328.673,393.603 337.702,381.795 L367.884,342.994 C372.108,337.613 379.754,336.374 385.463,340.144 L489.1,409.264 C494.918,413.126 496.663,420.886 493.058,426.868 Z" id="Shape"></path>
            <path d="M290.161,85.39 C370.242,85.479 435.138,150.376 435.228,230.457 C435.228,235.17 439.048,238.99 443.761,238.99 C448.474,238.99 452.294,235.17 452.294,230.457 C452.195,140.954 379.664,68.422 290.161,68.324 C285.448,68.324 281.628,72.144 281.628,76.857 C281.628,81.57 285.448,85.39 290.161,85.39 Z" id="Shape"></path>
            <path d="M290.161,136.59 C341.977,136.651 383.967,178.641 384.028,230.457 C384.028,235.17 387.849,238.99 392.561,238.99 C397.274,238.99 401.094,235.17 401.094,230.457 C401.023,169.219 351.398,119.594 290.161,119.524 C285.448,119.524 281.628,123.344 281.628,128.057 C281.628,132.77 285.448,136.59 290.161,136.59 Z" id="Shape"></path>
            <path d="M290.161,187.79 C313.713,187.818 332.799,206.904 332.828,230.457 C332.828,235.17 336.649,238.99 341.361,238.99 C346.073,238.99 349.894,235.17 349.894,230.457 C349.856,197.483 323.135,170.761 290.161,170.724 C285.448,170.724 281.628,174.544 281.628,179.257 C281.628,183.97 285.448,187.79 290.161,187.79 Z" id="Shape"></path>
        </g>
    </g>
</svg>