<?xml version="1.0" encoding="UTF-8"?>
<svg width="50px" height="40px" viewBox="0 0 50 40" version="1.1" xmlns="http://www.w3.org/2000/svg" xmlns:xlink="http://www.w3.org/1999/xlink">
    <!-- Generator: Sketch 43.1 (39012) - http://www.bohemiancoding.com/sketch -->
    <title>005-olive-branches-award-symbol</title>
    <desc>Created with Sketch.</desc>
    <defs></defs>
    <g id="Page-1" stroke="none" stroke-width="1" fill="none" fill-rule="evenodd">
        <g id="контакты-copy" transform="translate(-617.000000, -368.000000)" fill-rule="nonzero" fill="#F5F5F5">
            <g id="005-olive-branches-award-symbol" transform="translate(617.000000, 368.000000)">
                <g id="Group">
                    <path d="M5.43628186,14.0955022 C5.43628186,14.0955022 6.97217016,12.117976 5.97886994,9.3716042 C4.9821027,6.62696402 2.66093516,5.58452024 2.66093516,5.58452024 C2.66093516,5.58452024 0.923959895,7.94127436 1.89472451,10.6166492 C2.86375562,13.2937556 5.43628186,14.0955022 5.43628186,14.0955022 Z" id="Shape"></path>
                    <path d="M9.69897864,15.4998576 C9.69897864,15.4998576 12.3841829,15.2851349 13.9218047,12.8868216 C15.4594265,10.4902399 14.2841079,7.80967016 14.2841079,7.80967016 C14.2841079,7.80967016 11.7913231,8.31530735 10.2120971,10.7759595 C8.63460457,13.2348801 9.69897864,15.4998576 9.69897864,15.4998576 Z" id="Shape"></path>
                    <path d="M9.97113943,18.6687481 C8.72821402,21.3129535 10.0786169,23.422084 10.0786169,23.422084 C10.0786169,23.422084 12.715283,22.8575712 13.9252717,20.2826312 C15.133527,17.7042279 13.6184408,15.2002849 13.6184408,15.2002849 C13.6184408,15.2002849 11.2140648,16.0245427 9.97113943,18.6687481 Z" id="Shape"></path>
                    <path d="M16.0401518,20.7986582 C16.0401518,20.7986582 13.7224513,21.8480285 12.7343516,24.5944003 C11.7462519,27.345967 13.2873407,29.3165667 13.2873407,29.3165667 C13.2873407,29.3165667 15.8563999,28.5078936 16.8202305,25.8290555 C17.7823276,23.1502174 16.0401518,20.7986582 16.0401518,20.7986582 Z" id="Shape"></path>
                    <path d="M17.97128,35.2612669 C17.97128,35.2612669 20.2005716,33.746087 20.3513868,30.9044753 C20.5004685,28.0611319 18.1515648,26.3121814 18.1515648,26.3121814 C18.1515648,26.3121814 16.2343047,27.9832084 16.0800225,30.8992804 C15.9274738,33.8136207 17.97128,35.2612669 17.97128,35.2612669 Z" id="Shape"></path>
                    <path d="M8.85996064,8.80362819 C8.85996064,8.80362819 11.2366004,8.01053973 11.9334708,5.17585457 C12.6320746,2.34116942 11.2816717,0.187016492 11.2816717,0.187016492 C11.2816717,0.187016492 8.52886057,1.18443778 7.84759183,3.94985757 C7.1680566,6.71354573 8.85996064,8.80362819 8.85996064,8.80362819 Z" id="Shape"></path>
                    <path d="M5.43454835,20.1233208 C5.43454835,20.1233208 6.31690405,17.7804198 4.55739318,15.4513718 C2.79441529,13.1205922 0.270427286,12.8071664 0.270427286,12.8071664 C0.270427286,12.8071664 -0.693403298,15.5708546 1.02276987,17.8427586 C2.73894303,20.1163943 5.43454835,20.1233208 5.43454835,20.1233208 Z" id="Shape"></path>
                    <path d="M7.40381372,26.3052549 C7.40381372,26.3052549 7.74184783,23.8255547 5.50908921,21.945 C3.27286357,20.0627136 0.741941529,20.3189955 0.741941529,20.3189955 C0.741941529,20.3189955 0.416041979,23.2281409 2.59332834,25.0619415 C4.77408171,26.8940105 7.40381372,26.3052549 7.40381372,26.3052549 Z" id="Shape"></path>
                    <path d="M10.402783,31.417039 C10.402783,31.417039 9.97807346,28.9511919 7.27726762,27.8360195 C4.57472826,26.7173838 2.24142616,27.7269265 2.24142616,27.7269265 C2.24142616,27.7269265 2.81348388,30.597976 5.4449494,31.6889055 C8.07641492,32.7746402 10.402783,31.417039 10.402783,31.417039 Z" id="Shape"></path>
                    <path d="M11.7133152,33.5400225 C8.89809783,32.7538606 6.70000937,34.0335382 6.70000937,34.0335382 C6.70000937,34.0335382 7.6101012,36.8145427 10.3525112,37.5816567 C13.0983883,38.3487706 15.2444715,36.7227661 15.2444715,36.7227661 C15.2444715,36.7227661 14.5285326,34.3244528 11.7133152,33.5400225 Z" id="Shape"></path>
                    <path d="M9.15292354,10.4937031 L7.90133058,9.87897301 C7.83545727,10.0157721 1.39720765,23.6766342 19.4880997,39.1245427 L20.392991,38.0665142 C3.16885307,23.3562819 8.89983133,11.0114618 9.15292354,10.4937031 Z" id="Shape"></path>
                </g>
                <g id="Group" transform="translate(29.094828, 0.000000)">
                    <path d="M15.1945746,14.0695277 C15.1945746,14.0695277 13.6569528,12.0920015 14.6519865,9.34736132 C15.6452867,6.60098951 17.9681878,5.55854573 17.9681878,5.55854573 C17.9681878,5.55854573 19.7034295,7.91356822 18.7326649,10.5906747 C17.7671008,13.2677811 15.1945746,14.0695277 15.1945746,14.0695277 Z" id="Shape"></path>
                    <path d="M10.9318778,15.4738831 C10.9318778,15.4738831 8.24667354,15.2574288 6.70731822,12.8608471 C5.1696964,10.4642654 6.34501499,7.78369565 6.34501499,7.78369565 C6.34501499,7.78369565 8.83779985,8.28933283 10.4187594,10.7482534 C11.9962519,13.2089055 10.9318778,15.4738831 10.9318778,15.4738831 Z" id="Shape"></path>
                    <path d="M10.659717,18.641042 C11.9026424,21.2852474 10.5522395,23.3943778 10.5522395,23.3943778 C10.5522395,23.3943778 7.91557346,22.8298651 6.7038512,20.254925 C5.49732946,17.6765217 7.01068216,15.1725787 7.01068216,15.1725787 C7.01068216,15.1725787 9.4167916,15.9985682 10.659717,18.641042 Z" id="Shape"></path>
                    <path d="M4.59070465,20.7726837 C4.59070465,20.7726837 6.90667166,21.8203223 7.89650487,24.5718891 C8.88460457,27.3217241 7.34178223,29.2923238 7.34178223,29.2923238 C7.34178223,29.2923238 4.77445652,28.481919 3.81062594,25.803081 C2.84679535,23.1242429 4.59070465,20.7726837 4.59070465,20.7726837 Z" id="Shape"></path>
                    <path d="M2.65610945,35.2335607 C2.65610945,35.2335607 0.428551349,33.7201124 0.277736132,30.8767691 C0.128654423,28.0334258 2.4792916,26.2827436 2.4792916,26.2827436 C2.4792916,26.2827436 4.39308471,27.9537706 4.54910045,30.8715742 C4.70338268,33.7893778 2.65610945,35.2335607 2.65610945,35.2335607 Z" id="Shape"></path>
                    <path d="M11.7674288,8.77765367 C11.7674288,8.77765367 9.394256,7.98456522 8.69738568,5.14988006 C7.99878186,2.3151949 9.35091829,0.159310345 9.35091829,0.159310345 C9.35091829,0.159310345 12.1037294,1.15673163 12.7832646,3.92388306 C13.4627999,6.68583958 11.7674288,8.77765367 11.7674288,8.77765367 Z" id="Shape"></path>
                    <path d="M15.1963081,20.0973463 C15.1963081,20.0973463 14.3139524,17.7544453 16.0717298,15.4253973 C17.8347076,13.0946177 20.3604292,12.7811919 20.3604292,12.7811919 C20.3604292,12.7811919 21.3259933,15.5448801 19.6080866,17.8167841 C17.8901799,20.0904198 15.1963081,20.0973463 15.1963081,20.0973463 Z" id="Shape"></path>
                    <path d="M13.2270427,26.2792804 C13.2270427,26.2792804 12.8872751,23.7995802 15.1217672,21.9155622 C17.3579929,20.0350075 19.8889149,20.2912894 19.8889149,20.2912894 C19.8889149,20.2912894 20.2148145,23.2021664 18.0357946,25.0342354 C15.8567747,26.8663043 13.2270427,26.2792804 13.2270427,26.2792804 Z" id="Shape"></path>
                    <path d="M10.22634,31.3910645 C10.22634,31.3910645 10.652783,28.9234858 13.3535888,27.8065817 C16.0578617,26.687946 18.3894303,27.6974888 18.3894303,27.6974888 C18.3894303,27.6974888 17.8173726,30.5685382 15.185907,31.6577361 C12.552708,32.7486657 10.22634,31.3910645 10.22634,31.3910645 Z" id="Shape"></path>
                    <path d="M8.91580772,33.514048 C11.7310251,32.7296177 13.9308471,34.0075637 13.9308471,34.0075637 C13.9308471,34.0075637 13.0224888,36.7868366 10.2783452,37.5591454 C7.53420165,38.3227961 5.38811844,36.6967916 5.38811844,36.6967916 C5.38811844,36.6967916 6.10232384,34.3002099 8.91580772,33.514048 Z" id="Shape"></path>
                    <path d="M11.4761994,10.4677286 L12.7312594,9.8529985 C12.7971327,9.9897976 19.2353823,23.6506597 1.14275675,39.0968366 L0.239598951,38.0388081 C17.4602699,23.332039 11.7292916,10.9837556 11.4761994,10.4677286 Z" id="Shape"></path>
                </g>
            </g>
        </g>
    </g>
</svg>