<?xml version="1.0" encoding="UTF-8"?>
<svg width="30px" height="30px" viewBox="0 0 30 30" version="1.1" xmlns="http://www.w3.org/2000/svg" xmlns:xlink="http://www.w3.org/1999/xlink">
    <!-- Generator: Sketch 43.1 (39012) - http://www.bohemiancoding.com/sketch -->
    <title>whatsapp</title>
    <desc>Created with Sketch.</desc>
    <defs></defs>
    <g id="Page-1" stroke="none" stroke-width="1" fill="none" fill-rule="evenodd">
        <g id="контакты" transform="translate(-447.000000, -470.000000)" fill-rule="nonzero" fill="#F5F5F5">
            <g id="whatsapp" transform="translate(447.000000, 470.000000)">
                <path d="M25.5981216,4.35974119 C22.7826827,1.54980469 19.0383767,0.00164794688 15.0494098,0 C6.82975364,0 0.140147445,6.66851808 0.136841191,14.864685 C0.135739138,17.4847412 0.822332962,20.0423584 2.12737561,22.2967529 L0.0117554859,30 L7.91713608,27.9327393 C10.0953908,29.1172485 12.5476954,29.7414551 15.0433484,29.7421875 L15.0495935,29.7421875 C23.2683312,29.7421875 29.9586721,23.0731201 29.9617947,14.8765869 C29.9634478,10.9042969 28.4137441,7.16949464 25.5981216,4.35974119 Z M15.0494098,27.2316284 L15.0442667,27.2316284 C12.8202758,27.2307129 10.6390821,26.6348877 8.73579545,25.5093384 L8.28339292,25.2414551 L3.59221933,26.4682617 L4.84436229,21.9087525 L4.54955671,21.4412842 C3.30880194,19.473999 2.65361727,17.2001953 2.65471933,14.8656006 C2.65729086,8.05316161 8.21763569,2.51074219 15.0543691,2.51074219 C18.3650078,2.51184084 21.4770891,3.79870603 23.8171655,6.1342163 C26.1572419,8.46972656 27.4452023,11.5740967 27.4441002,14.8756714 C27.4411613,21.6886597 21.8811839,27.2316284 15.0494098,27.2316284 L15.0494098,27.2316284 Z M21.8481216,17.9776612 C21.4756196,17.791626 19.6436006,16.8933105 19.3019568,16.7691651 C18.9606804,16.6452026 18.7119783,16.5834961 18.4638274,16.9552002 C18.2153091,17.3269043 17.501347,18.1636963 17.2838705,18.411438 C17.066394,18.6593628 16.8492849,18.6904907 16.4765992,18.5044556 C16.1039136,18.3186035 14.9033846,17.9262085 13.4800524,16.6607666 C12.3724652,15.6758423 11.6247061,14.4594727 11.4072296,14.0877685 C11.1901205,13.7156982 11.4053929,13.5340576 11.5707043,13.3297119 C11.9740645,12.8303833 12.3779756,12.3068848 12.5021429,12.0591431 C12.6264939,11.8112183 12.5642266,11.5942383 12.4709174,11.4083862 C12.3779756,11.2225342 11.632788,9.39422606 11.3223697,8.65026853 C11.0196659,7.92626953 10.7127376,8.02404788 10.4838729,8.01269531 C10.2667638,8.00189208 10.0182455,7.99969481 9.76972716,7.99969481 C9.52139252,7.99969481 9.11766508,8.0925293 8.77602127,8.46459961 C8.43456113,8.83648683 7.47208072,9.73498538 7.47208072,11.5632935 C7.47208072,13.3916016 8.80724676,15.1578369 8.99349776,15.4057617 C9.17974871,15.6536865 11.6210325,19.4055176 15.358726,21.0142823 C16.2477346,21.3973388 16.9416757,21.6256714 17.4829791,21.796875 C18.3756612,22.0795898 19.1877082,22.0396729 19.8298516,21.9440918 C20.5458341,21.8373413 22.0341889,21.0454102 22.3449745,20.1778565 C22.6553929,19.3101196 22.6553929,18.5665283 22.5620836,18.411438 C22.4691418,18.2565308 22.2206235,18.1636963 21.8481216,17.9776612 L21.8481216,17.9776612 Z" id="Shape"></path>
            </g>
        </g>
    </g>
</svg>